<?xml version="1.0" encoding="UTF-8"?>
<svg enable-background="new 0 0 1512.494 1666.772" version="1.1" viewBox="0 0 1512.494 1666.772" xmlns="http://www.w3.org/2000/svg">
 <path d="m1313.5 1615.3" fill="none" stroke="#000" stroke-miterlimit="10" stroke-width=".9788"/>
 <rect transform="matrix(.0167 -.9999 .9999 .0167 -207.84 2149.9)" x="918.39" y="1125.6" width="141.4" height="110.01" fill="#B2B2B2" stroke="#000" stroke-width="7.83"/>
 <rect transform="matrix(.0158 -.9999 .9999 .0158 -332.19 2269.9)" x="902.77" y="1233.8" width="168.35" height="139.81" stroke="#000" stroke-width="7.83"/>
 <rect transform="matrix(.0123 -.9999 .9999 .0123 -137.64 2145.3)" x="1008.4" y="1132.6" width="17.598" height="19.533" stroke="#000" stroke-width="7.83"/>
 <rect transform="matrix(.0123 -.9999 .9999 .0123 -187.39 2091.3)" x="956.13" y="1130.7" width="17.598" height="19.533" stroke="#000" stroke-width="7.83"/>
 <path d="m149.9 937.84c1e-3 1e-3 -1e-3 -4e-3 0-2e-3 -0.03 0.011 0.011-3e-3 -9e-3 5e-3 2e-3 -1e-3 -1e-3 1e-3 0 0-3e-3 0-5e-3 0-1e-3 4e-3 0 0 4e-3 -3e-3 6e-3 -5e-3h-2e-3c0 2e-3 0 2e-3 6e-3 -2e-3z"/>
 <polygon points="149.9 937.84 149.9 937.84"/>
 <polygon points="149.9 937.84 149.9 937.84"/>
 <path d="m1183.7 116.97c-112.3-58.598-262.61-85.173-363.78-83.512-161.69 0.289-313.66 39.603-436.16 144.17-101.58 86.412-183.68 243.8-164.13 358.24 2.367 13.651 6.459 23.558 4.932 32.166-109.43 148.91-226.66 250.11-186.06 312.85 11.405 17.705 30.87 27.384 48.902 36.618 16.185 8.36 8.764 5.721 16.153 7.945 18.384 5.483 32.357 3.219 43.768 10.006 0.575 0.342 2.616 2.397 2.556 2.388-0.015-0.011 0.026 0.052 0.019 0.179 1.374 5.6-9.132 26.021-9.861 37.798-0.596 17.582-42.389 38.733-20.915 78.839 6.394 12.113 17.825 20.241 28.052 27.781-6.576 7.02-11.096 11.373-15.748 17.459-13.49 17.704-11.67 33.87-2.002 45.112 14.369 16.419 31.439 33.252 34.542 49.605 1.629 8.591 0.562 11.033-15.04 56.086-13.051 38.52-21.813 72.609-3.502 105.78 2.037 3.644 9.575 14.562 11.979 17.265 57.607 67.664 142.41 64.025 227.58 60.422 47.323-2.361 94.079-8.837 111.57 24.61 3.191 6.056 5.405 12.754 7.18 19.305 6.192 24.023 12.846 47.334 14.893 65.589 2.812 21.772-1.169 38.894 9.309 58.045 12.766 20.664 34.068 28.521 58.154 31.175 17.6 1.625 356.9-1.268 357.9-1.309 26.484-1.429 44.414-18.052 51.359-38.013 3.904-10.184 2.777-4.199 6.305-201.46l-32.635-0.584c-7e-3 0.396-3.283 184.17-3.32 184.56-1.243 13.791-10.406 21.607-21.27 22.811-11.598 0.223 55.947-0.257-327.64 2.203-23.584 0.152-43.692 0.505-58.189-12.466-6.892-5.955-5.648-24.01-6.555-38.138-2.111-31.311-18.515-87.008-19.445-89.782-27.941-84.859-112.21-56.332-213.8-57.46-59.583-0.843-112.48-12.722-144.73-62.45-18.489-28.617 7.278-78.956 19.562-120.67 12.445-41.793-13.117-66.303-39.051-95.929 5.345-13.277 44.817-35.051 21.79-60.135-7.838-8.381-34.162-20.727-30.246-34.408 3.121-10.785 22.478-24.428 26.036-47.581 0.733-5.845 0.184-3.354 0.768-5.675 3.987-15.043 20.533-43.403-1.894-63.6-15.071-12.947-27.834-13.536-45.794-16.138-8.516-1.207-12.378-2.492-12.378-2.492-3.258-1.94-8.172-4.472-10.555-5.704-33.614-17.214-44.201-24.399-36.742-49.186 14.029-47.441 77.756-111.81 166.18-227.13 4.478-5.548 10.963-12.344 16.294-19.841 16.683-23.722 7.208-41.665 3.748-61.97-22.258-127.8 114.52-463.38 563.14-464.23 465.4-0.919 764.33 336.9 579.13 815.3-32.976 85.214-117.87 154.51-150.15 268.32-11.279 41.132 0.52 140.98 5.839 185.81l32.395-3.99c-3.901-32.88-16.035-138.02-7.439-170.26 16.484-75.984 92.548-162.29 124.12-216.82 18.479-31.187 22.771-43.787 30.946-64.905 117.45-313.32 38.325-613.65-246.08-762.6z"/>
 <path d="m1232.3 1481.7s1.508 8.836 3.771 22.091c2.274 13.252 5.452 30.897 8.733 48.536 3.272 17.638 6.747 35.268 9.41 48.5 1.355 6.618 2.484 12.133 3.274 15.994 0.806 3.863 1.266 6.07 1.266 6.07l107.66-22.614s-0.442-2.118-1.215-5.826c-0.76-3.715-1.847-9.023-3.151-15.392-2.568-12.759-5.93-29.812-9.105-46.93-3.182-17.114-6.272-34.259-8.481-47.136-2.198-12.879-3.663-21.465-3.663-21.465l-108.5 18.172z" fill="#B2B2B2" stroke="#000" stroke-width="7.83"/>
 <path d="m1197.3 1346s0.336 2.683 0.923 7.379c0.573 4.703 1.448 11.392 2.511 19.413 2.133 16.038 5.13 37.346 8.357 58.569 3.21 21.228 6.665 42.379 9.328 58.23 1.352 7.922 2.478 14.523 3.266 19.144 0.8 4.619 1.257 7.258 1.257 7.258l137.71-24.127s-0.44-2.545-1.211-6.998c-0.76-4.455-1.846-10.819-3.149-18.457-2.566-15.279-5.9-35.669-8.98-56.057-3.101-20.388-5.964-40.759-7.994-56.011-1.007-7.625-1.842-13.978-2.381-18.413l-0.872-6.976-138.77 17.046z" stroke="#000" stroke-width="7.83"/>
 <polygon points="1321.8 1568.1 1325.2 1585.3 1344.3 1581.5 1341 1564.5" stroke="#000" stroke-width="7.83"/>
 <polygon points="1270.7 1579.1 1274.1 1596.6 1293.3 1592.8 1289.9 1575.5" stroke="#000" stroke-width="7.83"/>
 <path d="m1354.7 491.61c-2.712-2.978-2.758-3.069-4.755-9.978-6.455-22.265-22.131-52.933-41.771-64.695l-5.891-3.527c-1.229-14.304-1.295-39.072-24.738-69.377-13.039-16.852-32.272-32.417-50.256-42.028-2.076-8.546-6.585-19.64-22.631-34.872-8.516-8.091-39.808-72.355-158.52-96.113-16.401-3.28-38.6-23.237-110.64-21.367-40.22-21.604-79.963-23.077-123.82-12.562-41.37-6.355-76.318-3.493-114.27 10.958-72.063-7.039-128.11 13.39-169.18 52.143-60.857-8.096-114.89 82.05-143.37 98.77-23.681 13.945-40.547 43.388-49.687 70.706-3.493 10.45-4.284 7.965-11.462 22.228-20.242 40.371-1.347 56.168-1.347 57.888 0 2.132-33.361 42.292 28.861 108.36 9.727 47.246 39.617 90.814 147.7 110.72 3.588 11.447 7.42 14.986 18.05 25.893 0.909 7.932 1.131 11.172 2.73 15.008 1.264 3.051 1.338 3.518 0.898 5.58-6.589 30.379 39.096 49.854 49.184 58.227 70.839 58.625 132.68 47.468 154.21 49.605 13.707 1.347 42.578-2.043 75.223-8.851 8.966-1.86 8.428-2.03 9.565 1.035 14.764 39.773 50.85 62.382 52.757 65.584 19.863 32.731 57.168 98.32 63.101 114.95 7.784 21.712 22.714 43.839 44.685 49.596 8.345 2.2 16.443-0.305 21.137-0.889 32.727-4.02-12.589-77.326-8.906-86.877 0.364-0.947 4.715 0.907 23.428 4.829 23.018 4.843 33.319 0.936 56.916 4.251 19.131 2.685 32.536 1.374 67.215-6.56 28.092-6.432 44.822-12.882 62.716-24.189 22.915-14.477 40.314-36.521 42.028-53.27 0.302-2.932 0.33-2.969 3.757-6.469 6.203-6.331 8.402-11.453 10.454-24.253 1.426-8.931 0.997-3.528-2.776-23.181 32.713-0.028 67.131-2.007 98.266-34.295 31.54-32.648 42.259-82.731 44.172-128.06 0.402-9.5 3.414-134.88-33.02-174.92z"/>
</svg>
